<svg width="56.000000" height="56.000000" viewBox="0 0 56 56" fill="none" xmlns="http://www.w3.org/2000/svg" xmlns:xlink="http://www.w3.org/1999/xlink">
	<desc>
			Created with Pixso.
	</desc>
	<defs>
		<clipPath id="clip602_114">
			<rect id="arrow" width="56.000000" height="56.000000" transform="translate(55.500000 55.500000) rotate(180.000000)" fill="white" fill-opacity="0"/>
		</clipPath>
	</defs>
	<rect id="arrow" width="56.000000" height="56.000000" transform="translate(55.500000 55.500000) rotate(180.000000)" fill="#FFFFFF" fill-opacity="0"/>
	<g clip-path="url(#clip602_114)">
		<path id="Vector" d="M7.97 28.82L28.63 46.75C28.79 46.89 28.99 46.96 29.21 46.96L34.05 46.96C34.45 46.96 34.64 46.46 34.33 46.2L15.18 29.57L47.18 29.57C47.42 29.57 47.62 29.38 47.62 29.14L47.62 25.85C47.62 25.61 47.42 25.42 47.18 25.42L15.18 25.42L34.34 8.79C34.64 8.52 34.46 8.03 34.05 8.03L29.05 8.03C28.94 8.03 28.84 8.06 28.76 8.14L7.97 26.17C7.78 26.34 7.63 26.54 7.53 26.77C7.42 27 7.37 27.24 7.37 27.5C7.37 27.75 7.42 27.99 7.53 28.22C7.63 28.45 7.78 28.65 7.97 28.82Z" fill="#FFFFFF" fill-opacity="1.000000" fill-rule="nonzero"/>
	</g>
</svg>
