<svg width="56.000000" height="56.000000" viewBox="0 0 56 56" fill="none" xmlns="http://www.w3.org/2000/svg" xmlns:xlink="http://www.w3.org/1999/xlink">
	<desc>
			Created with Pixso.
	</desc>
	<defs>
		<clipPath id="clip602_113">
			<rect id="arrow" width="56.000000" height="56.000000" transform="translate(-0.500000 -0.500000)" fill="white" fill-opacity="0"/>
		</clipPath>
	</defs>
	<rect id="arrow" width="56.000000" height="56.000000" transform="translate(-0.500000 -0.500000)" fill="#FFFFFF" fill-opacity="0"/>
	<g clip-path="url(#clip602_113)">
		<path id="Vector" d="M47.02 26.17L26.36 8.24C26.2 8.1 26 8.03 25.78 8.03L20.94 8.03C20.54 8.03 20.35 8.53 20.66 8.79L39.81 25.42L7.81 25.42C7.57 25.42 7.37 25.61 7.37 25.85L7.37 29.14C7.37 29.38 7.57 29.57 7.81 29.57L39.81 29.57L20.65 46.2C20.35 46.47 20.53 46.96 20.94 46.96L25.94 46.96C26.05 46.96 26.15 46.93 26.23 46.85L47.02 28.82C47.21 28.65 47.36 28.45 47.46 28.22C47.57 27.99 47.62 27.75 47.62 27.5C47.62 27.24 47.57 27 47.46 26.77C47.36 26.54 47.21 26.34 47.02 26.17Z" fill="#FFFFFF" fill-opacity="1.000000" fill-rule="nonzero"/>
	</g>
</svg>
